# xmcd
#
# Track frame offsets: 
#        150
#        17237
#        33305
#        51614
#        76285
#        89902
#        106268
#        121477
#        144949
#        150671
#        164125
#        187453
#        200214
#        219767
#        237428
#
# Disc length: 3743 seconds
#
# Revision: 0
# Processed by: cddbd v1.5.2PL0 Copyright (c) Steve Scherf et al.
# Submitted via: ExactAudioCopy v1.0b3
#
DISCID=e20e9d0f
DTITLE=欧美金唱片 - DJ Car
DYEAR=2013
DGENRE=Blues
TTITLE0=DJ westlife - Electronic musical journey
TTITLE1=Darin Zanyar - B What U Wanna B
TTITLE2=Lady Gaga - Just Dance
TTITLE3=Ricky Martin - La Bomba
TTITLE4=Ann Winsborn - La La Love On My Mind
TTITLE5=Prod by Upscale - Do You Beieve in Love
TTITLE6=Taio Cruz - Dreak Your Heart
TTITLE7=Twenty - Shake Shake
TTITLE8=Various Artist - Boom Ba La
TTITLE9=Dj Kool - Let Me Clear My Throat
TTITLE10=Imfao - Doo Wop Du
TTITLE11=Tiësto - Saturday Night
TTITLE12=Shaoyuhan - Happy Arale
TTITLE13=Gaoyaotai - Spark
TTITLE14=Soulja boy - The ice age
EXTD=
EXTT0=
EXTT1=
EXTT2=
EXTT3=
EXTT4=
EXTT5=
EXTT6=
EXTT7=
EXTT8=
EXTT9=
EXTT10=
EXTT11=
EXTT12=
EXTT13=
EXTT14=
PLAYORDER=
